<?xml version="1.0" standalone="no"?>
<!DOCTYPE svg PUBLIC "-//W3C//DTD SVG 20010904//EN"
 "http://www.w3.org/TR/2001/REC-SVG-20010904/DTD/svg10.dtd">
<svg version="1.0" xmlns="http://www.w3.org/2000/svg"
 width="500.000000pt" height="500.000000pt" viewBox="0 0 500.000000 500.000000"
 preserveAspectRatio="xMidYMid meet">
<metadata>
Created by potrace 1.14, written by Peter Selinger 2001-2017
</metadata>
<g transform="translate(0.000000,500.000000) scale(0.100000,-0.100000)"
fill="#000000" stroke="none">
<path d="M628 4155 c-64 -16 -119 -55 -160 -111 -18 -25 -33 -49 -34 -53 0 -3
-4 -22 -8 -40 -10 -43 -11 -2430 -1 -2489 8 -50 19 -73 57 -123 29 -37 112
-89 144 -89 9 0 14 -3 11 -7 -4 -3 -37 -7 -74 -8 -87 -3 -116 -15 -170 -71
-52 -55 -64 -77 -136 -254 -57 -140 -71 -174 -92 -225 -73 -172 -165 -409
-165 -423 0 -10 7 -42 16 -71 18 -61 68 -121 133 -159 l46 -27 2305 0 c2227 0
2306 1 2340 19 59 31 119 96 140 154 32 85 44 44 -160 542 -39 96 -77 189 -83
205 -27 75 -99 204 -134 239 -49 50 -94 69 -165 71 -32 1 -60 4 -63 7 -3 3 16
13 42 23 76 29 144 112 159 193 8 43 9 2418 1 2480 -12 89 -92 180 -187 212
-48 16 -172 17 -1883 17 -1388 0 -1843 -3 -1879 -12z"/>
</g>
</svg>
